# MagicaVoxel @ Ephtracy

# group
o 

# material
mtllib Crossing.mtl
usemtl palette

# normals
vn -1 0 0
vn 1 0 0
vn 0 0 1
vn 0 0 -1
vn 0 -1 0
vn 0 1 0

# texcoords
vt 0.958984 0.5
vt 0.986328 0.5

# verts
v 0 2 0
v 0 2 -0.3
v 0 2 -0.7
v 0 2 -0.8
v 0 2 -1.2
v 0 2 -1.3
v 0 2 -1.7
v 0 2 -1.8
v 0 2 -2.2
v 0 2 -2.3
v 0 2 -2.7
v 0 2 -2.8
v 0 2 -3.2
v 0 2 -3.3
v 0 2 -3.7
v 0 2 -4
v 0 2.1 0
v 0 2.1 -0.3
v 0 2.1 -0.7
v 0 2.1 -0.8
v 0 2.1 -1.2
v 0 2.1 -1.3
v 0 2.1 -1.7
v 0 2.1 -1.8
v 0 2.1 -2.2
v 0 2.1 -2.3
v 0 2.1 -2.7
v 0 2.1 -2.8
v 0 2.1 -3.2
v 0 2.1 -3.3
v 0 2.1 -3.7
v 0 2.1 -4
v 4 2 0
v 4 2 -0.3
v 4 2 -0.7
v 4 2 -0.8
v 4 2 -1.2
v 4 2 -1.3
v 4 2 -1.7
v 4 2 -1.8
v 4 2 -2.2
v 4 2 -2.3
v 4 2 -2.7
v 4 2 -2.8
v 4 2 -3.2
v 4 2 -3.3
v 4 2 -3.7
v 4 2 -4
v 4 2.1 0
v 4 2.1 -0.3
v 4 2.1 -0.7
v 4 2.1 -0.8
v 4 2.1 -1.2
v 4 2.1 -1.3
v 4 2.1 -1.7
v 4 2.1 -1.8
v 4 2.1 -2.2
v 4 2.1 -2.3
v 4 2.1 -2.7
v 4 2.1 -2.8
v 4 2.1 -3.2
v 4 2.1 -3.3
v 4 2.1 -3.7
v 4 2.1 -4
v 0 2 0
v 0 2.1 0
v 0.3 2 0
v 0.3 2.1 0
v 0.7 2 0
v 0.7 2.1 0
v 0.8 2 0
v 0.8 2.1 0
v 1.2 2 0
v 1.2 2.1 0
v 1.3 2 0
v 1.3 2.1 0
v 1.7 2 0
v 1.7 2.1 0
v 1.8 2 0
v 1.8 2.1 0
v 2.2 2 0
v 2.2 2.1 0
v 2.3 2 0
v 2.3 2.1 0
v 2.7 2 0
v 2.7 2.1 0
v 2.8 2 0
v 2.8 2.1 0
v 3.2 2 0
v 3.2 2.1 0
v 3.3 2 0
v 3.3 2.1 0
v 3.7 2 0
v 3.7 2.1 0
v 4 2 0
v 4 2.1 0
v 0 2 -4
v 0 2.1 -4
v 0.3 2 -4
v 0.3 2.1 -4
v 0.7 2 -4
v 0.7 2.1 -4
v 0.8 2 -4
v 0.8 2.1 -4
v 1.2 2 -4
v 1.2 2.1 -4
v 1.3 2 -4
v 1.3 2.1 -4
v 1.7 2 -4
v 1.7 2.1 -4
v 1.8 2 -4
v 1.8 2.1 -4
v 2.2 2 -4
v 2.2 2.1 -4
v 2.3 2 -4
v 2.3 2.1 -4
v 2.7 2 -4
v 2.7 2.1 -4
v 2.8 2 -4
v 2.8 2.1 -4
v 3.2 2 -4
v 3.2 2.1 -4
v 3.3 2 -4
v 3.3 2.1 -4
v 3.7 2 -4
v 3.7 2.1 -4
v 4 2 -4
v 4 2.1 -4
v 0 2 0
v 0.3 2 0
v 0.7 2 0
v 0.8 2 0
v 1.2 2 0
v 1.3 2 0
v 1.7 2 0
v 1.8 2 0
v 2.2 2 0
v 2.3 2 0
v 2.7 2 0
v 2.8 2 0
v 3.2 2 0
v 3.3 2 0
v 3.7 2 0
v 4 2 0
v 0 2 -0.3
v 0.3 2 -0.3
v 0.7 2 -0.3
v 0.8 2 -0.3
v 1.2 2 -0.3
v 1.3 2 -0.3
v 1.7 2 -0.3
v 1.8 2 -0.3
v 2.2 2 -0.3
v 2.3 2 -0.3
v 2.7 2 -0.3
v 2.8 2 -0.3
v 3.2 2 -0.3
v 3.3 2 -0.3
v 3.7 2 -0.3
v 4 2 -0.3
v 0 2 -0.7
v 0.3 2 -0.7
v 3.7 2 -0.7
v 4 2 -0.7
v 0 2 -0.8
v 0.3 2 -0.8
v 3.7 2 -0.8
v 4 2 -0.8
v 0 2 -1.2
v 0.3 2 -1.2
v 3.7 2 -1.2
v 4 2 -1.2
v 0 2 -1.3
v 0.3 2 -1.3
v 3.7 2 -1.3
v 4 2 -1.3
v 0 2 -1.7
v 0.3 2 -1.7
v 3.7 2 -1.7
v 4 2 -1.7
v 0 2 -1.8
v 0.3 2 -1.8
v 3.7 2 -1.8
v 4 2 -1.8
v 0 2 -2.2
v 0.3 2 -2.2
v 3.7 2 -2.2
v 4 2 -2.2
v 0 2 -2.3
v 0.3 2 -2.3
v 3.7 2 -2.3
v 4 2 -2.3
v 0 2 -2.7
v 0.3 2 -2.7
v 3.7 2 -2.7
v 4 2 -2.7
v 0 2 -2.8
v 0.3 2 -2.8
v 3.7 2 -2.8
v 4 2 -2.8
v 0 2 -3.2
v 0.3 2 -3.2
v 3.7 2 -3.2
v 4 2 -3.2
v 0 2 -3.3
v 0.3 2 -3.3
v 3.7 2 -3.3
v 4 2 -3.3
v 0 2 -3.7
v 0.3 2 -3.7
v 0.7 2 -3.7
v 0.8 2 -3.7
v 1.2 2 -3.7
v 1.3 2 -3.7
v 1.7 2 -3.7
v 1.8 2 -3.7
v 2.2 2 -3.7
v 2.3 2 -3.7
v 2.7 2 -3.7
v 2.8 2 -3.7
v 3.2 2 -3.7
v 3.3 2 -3.7
v 3.7 2 -3.7
v 4 2 -3.7
v 0 2 -4
v 0.3 2 -4
v 0.7 2 -4
v 0.8 2 -4
v 1.2 2 -4
v 1.3 2 -4
v 1.7 2 -4
v 1.8 2 -4
v 2.2 2 -4
v 2.3 2 -4
v 2.7 2 -4
v 2.8 2 -4
v 3.2 2 -4
v 3.3 2 -4
v 3.7 2 -4
v 4 2 -4
v 0 2.1 0
v 0.3 2.1 0
v 0.7 2.1 0
v 0.8 2.1 0
v 1.2 2.1 0
v 1.3 2.1 0
v 1.7 2.1 0
v 1.8 2.1 0
v 2.2 2.1 0
v 2.3 2.1 0
v 2.7 2.1 0
v 2.8 2.1 0
v 3.2 2.1 0
v 3.3 2.1 0
v 3.7 2.1 0
v 4 2.1 0
v 0 2.1 -0.3
v 0.3 2.1 -0.3
v 0.7 2.1 -0.3
v 0.8 2.1 -0.3
v 1.2 2.1 -0.3
v 1.3 2.1 -0.3
v 1.7 2.1 -0.3
v 1.8 2.1 -0.3
v 2.2 2.1 -0.3
v 2.3 2.1 -0.3
v 2.7 2.1 -0.3
v 2.8 2.1 -0.3
v 3.2 2.1 -0.3
v 3.3 2.1 -0.3
v 3.7 2.1 -0.3
v 4 2.1 -0.3
v 0 2.1 -0.7
v 0.3 2.1 -0.7
v 3.7 2.1 -0.7
v 4 2.1 -0.7
v 0 2.1 -0.8
v 0.3 2.1 -0.8
v 3.7 2.1 -0.8
v 4 2.1 -0.8
v 0 2.1 -1.2
v 0.3 2.1 -1.2
v 3.7 2.1 -1.2
v 4 2.1 -1.2
v 0 2.1 -1.3
v 0.3 2.1 -1.3
v 3.7 2.1 -1.3
v 4 2.1 -1.3
v 0 2.1 -1.7
v 0.3 2.1 -1.7
v 3.7 2.1 -1.7
v 4 2.1 -1.7
v 0 2.1 -1.8
v 0.3 2.1 -1.8
v 3.7 2.1 -1.8
v 4 2.1 -1.8
v 0 2.1 -2.2
v 0.3 2.1 -2.2
v 3.7 2.1 -2.2
v 4 2.1 -2.2
v 0 2.1 -2.3
v 0.3 2.1 -2.3
v 3.7 2.1 -2.3
v 4 2.1 -2.3
v 0 2.1 -2.7
v 0.3 2.1 -2.7
v 3.7 2.1 -2.7
v 4 2.1 -2.7
v 0 2.1 -2.8
v 0.3 2.1 -2.8
v 3.7 2.1 -2.8
v 4 2.1 -2.8
v 0 2.1 -3.2
v 0.3 2.1 -3.2
v 3.7 2.1 -3.2
v 4 2.1 -3.2
v 0 2.1 -3.3
v 0.3 2.1 -3.3
v 3.7 2.1 -3.3
v 4 2.1 -3.3
v 0 2.1 -3.7
v 0.3 2.1 -3.7
v 0.7 2.1 -3.7
v 0.8 2.1 -3.7
v 1.2 2.1 -3.7
v 1.3 2.1 -3.7
v 1.7 2.1 -3.7
v 1.8 2.1 -3.7
v 2.2 2.1 -3.7
v 2.3 2.1 -3.7
v 2.7 2.1 -3.7
v 2.8 2.1 -3.7
v 3.2 2.1 -3.7
v 3.3 2.1 -3.7
v 3.7 2.1 -3.7
v 4 2.1 -3.7
v 0 2.1 -4
v 0.3 2.1 -4
v 0.7 2.1 -4
v 0.8 2.1 -4
v 1.2 2.1 -4
v 1.3 2.1 -4
v 1.7 2.1 -4
v 1.8 2.1 -4
v 2.2 2.1 -4
v 2.3 2.1 -4
v 2.7 2.1 -4
v 2.8 2.1 -4
v 3.2 2.1 -4
v 3.3 2.1 -4
v 3.7 2.1 -4
v 4 2.1 -4

# faces
f 17/1/1 2/1/1 1/1/1
f 18/2/1 3/2/1 2/2/1
f 18/1/1 2/1/1 17/1/1
f 19/1/1 4/1/1 3/1/1
f 19/2/1 3/2/1 18/2/1
f 20/2/1 5/2/1 4/2/1
f 20/1/1 4/1/1 19/1/1
f 21/1/1 6/1/1 5/1/1
f 21/2/1 5/2/1 20/2/1
f 22/2/1 7/2/1 6/2/1
f 22/1/1 6/1/1 21/1/1
f 23/1/1 8/1/1 7/1/1
f 23/2/1 7/2/1 22/2/1
f 24/2/1 9/2/1 8/2/1
f 24/1/1 8/1/1 23/1/1
f 25/1/1 10/1/1 9/1/1
f 25/2/1 9/2/1 24/2/1
f 26/2/1 11/2/1 10/2/1
f 26/1/1 10/1/1 25/1/1
f 27/1/1 12/1/1 11/1/1
f 27/2/1 11/2/1 26/2/1
f 28/2/1 13/2/1 12/2/1
f 28/1/1 12/1/1 27/1/1
f 29/1/1 14/1/1 13/1/1
f 29/2/1 13/2/1 28/2/1
f 30/2/1 15/2/1 14/2/1
f 30/1/1 14/1/1 29/1/1
f 31/1/1 16/1/1 15/1/1
f 31/2/1 15/2/1 30/2/1
f 32/1/1 16/1/1 31/1/1
f 33/1/2 34/1/2 49/1/2
f 34/2/2 35/2/2 50/2/2
f 49/1/2 34/1/2 50/1/2
f 35/1/2 36/1/2 51/1/2
f 50/2/2 35/2/2 51/2/2
f 36/2/2 37/2/2 52/2/2
f 51/1/2 36/1/2 52/1/2
f 37/1/2 38/1/2 53/1/2
f 52/2/2 37/2/2 53/2/2
f 38/2/2 39/2/2 54/2/2
f 53/1/2 38/1/2 54/1/2
f 39/1/2 40/1/2 55/1/2
f 54/2/2 39/2/2 55/2/2
f 40/2/2 41/2/2 56/2/2
f 55/1/2 40/1/2 56/1/2
f 41/1/2 42/1/2 57/1/2
f 56/2/2 41/2/2 57/2/2
f 42/2/2 43/2/2 58/2/2
f 57/1/2 42/1/2 58/1/2
f 43/1/2 44/1/2 59/1/2
f 58/2/2 43/2/2 59/2/2
f 44/2/2 45/2/2 60/2/2
f 59/1/2 44/1/2 60/1/2
f 45/1/2 46/1/2 61/1/2
f 60/2/2 45/2/2 61/2/2
f 46/2/2 47/2/2 62/2/2
f 61/1/2 46/1/2 62/1/2
f 47/1/2 48/1/2 63/1/2
f 62/2/2 47/2/2 63/2/2
f 63/1/2 48/1/2 64/1/2
f 67/1/3 66/1/3 65/1/3
f 68/1/3 66/1/3 67/1/3
f 69/2/3 68/2/3 67/2/3
f 70/2/3 68/2/3 69/2/3
f 71/1/3 70/1/3 69/1/3
f 72/1/3 70/1/3 71/1/3
f 73/2/3 72/2/3 71/2/3
f 74/2/3 72/2/3 73/2/3
f 75/1/3 74/1/3 73/1/3
f 76/1/3 74/1/3 75/1/3
f 77/2/3 76/2/3 75/2/3
f 78/2/3 76/2/3 77/2/3
f 79/1/3 78/1/3 77/1/3
f 80/1/3 78/1/3 79/1/3
f 81/2/3 80/2/3 79/2/3
f 82/2/3 80/2/3 81/2/3
f 83/1/3 82/1/3 81/1/3
f 84/1/3 82/1/3 83/1/3
f 85/2/3 84/2/3 83/2/3
f 86/2/3 84/2/3 85/2/3
f 87/1/3 86/1/3 85/1/3
f 88/1/3 86/1/3 87/1/3
f 89/2/3 88/2/3 87/2/3
f 90/2/3 88/2/3 89/2/3
f 91/1/3 90/1/3 89/1/3
f 92/1/3 90/1/3 91/1/3
f 93/2/3 92/2/3 91/2/3
f 94/2/3 92/2/3 93/2/3
f 95/1/3 94/1/3 93/1/3
f 96/1/3 94/1/3 95/1/3
f 97/1/4 98/1/4 99/1/4
f 99/1/4 98/1/4 100/1/4
f 99/2/4 100/2/4 101/2/4
f 101/2/4 100/2/4 102/2/4
f 101/1/4 102/1/4 103/1/4
f 103/1/4 102/1/4 104/1/4
f 103/2/4 104/2/4 105/2/4
f 105/2/4 104/2/4 106/2/4
f 105/1/4 106/1/4 107/1/4
f 107/1/4 106/1/4 108/1/4
f 107/2/4 108/2/4 109/2/4
f 109/2/4 108/2/4 110/2/4
f 109/1/4 110/1/4 111/1/4
f 111/1/4 110/1/4 112/1/4
f 111/2/4 112/2/4 113/2/4
f 113/2/4 112/2/4 114/2/4
f 113/1/4 114/1/4 115/1/4
f 115/1/4 114/1/4 116/1/4
f 115/2/4 116/2/4 117/2/4
f 117/2/4 116/2/4 118/2/4
f 117/1/4 118/1/4 119/1/4
f 119/1/4 118/1/4 120/1/4
f 119/2/4 120/2/4 121/2/4
f 121/2/4 120/2/4 122/2/4
f 121/1/4 122/1/4 123/1/4
f 123/1/4 122/1/4 124/1/4
f 123/2/4 124/2/4 125/2/4
f 125/2/4 124/2/4 126/2/4
f 125/1/4 126/1/4 127/1/4
f 127/1/4 126/1/4 128/1/4
f 145/1/5 130/1/5 129/1/5
f 146/2/5 131/2/5 130/2/5
f 146/1/5 130/1/5 145/1/5
f 147/1/5 132/1/5 131/1/5
f 147/2/5 131/2/5 146/2/5
f 148/2/5 133/2/5 132/2/5
f 148/1/5 132/1/5 147/1/5
f 149/1/5 134/1/5 133/1/5
f 149/2/5 133/2/5 148/2/5
f 150/2/5 135/2/5 134/2/5
f 150/1/5 134/1/5 149/1/5
f 151/1/5 136/1/5 135/1/5
f 151/2/5 135/2/5 150/2/5
f 152/2/5 137/2/5 136/2/5
f 152/1/5 136/1/5 151/1/5
f 153/1/5 138/1/5 137/1/5
f 153/2/5 137/2/5 152/2/5
f 154/2/5 139/2/5 138/2/5
f 154/1/5 138/1/5 153/1/5
f 155/1/5 140/1/5 139/1/5
f 155/2/5 139/2/5 154/2/5
f 156/2/5 141/2/5 140/2/5
f 156/1/5 140/1/5 155/1/5
f 157/1/5 142/1/5 141/1/5
f 157/2/5 141/2/5 156/2/5
f 158/2/5 143/2/5 142/2/5
f 158/1/5 142/1/5 157/1/5
f 159/1/5 144/1/5 143/1/5
f 159/2/5 143/2/5 158/2/5
f 160/1/5 144/1/5 159/1/5
f 161/2/5 158/2/5 157/2/5
f 161/2/5 146/2/5 145/2/5
f 161/2/5 160/2/5 159/2/5
f 161/2/5 159/2/5 158/2/5
f 161/2/5 157/2/5 156/2/5
f 161/2/5 156/2/5 155/2/5
f 161/2/5 155/2/5 154/2/5
f 161/2/5 154/2/5 153/2/5
f 161/2/5 153/2/5 152/2/5
f 161/2/5 152/2/5 151/2/5
f 161/2/5 151/2/5 150/2/5
f 161/2/5 150/2/5 149/2/5
f 161/2/5 149/2/5 148/2/5
f 161/2/5 148/2/5 147/2/5
f 161/2/5 147/2/5 146/2/5
f 162/2/5 160/2/5 161/2/5
f 163/2/5 160/2/5 162/2/5
f 164/2/5 160/2/5 163/2/5
f 165/1/5 162/1/5 161/1/5
f 166/2/5 163/2/5 162/2/5
f 166/1/5 162/1/5 165/1/5
f 167/1/5 164/1/5 163/1/5
f 167/2/5 163/2/5 166/2/5
f 168/1/5 164/1/5 167/1/5
f 169/2/5 166/2/5 165/2/5
f 169/2/5 167/2/5 166/2/5
f 169/2/5 168/2/5 167/2/5
f 170/2/5 168/2/5 169/2/5
f 171/2/5 168/2/5 170/2/5
f 172/2/5 168/2/5 171/2/5
f 173/1/5 170/1/5 169/1/5
f 174/2/5 171/2/5 170/2/5
f 174/1/5 170/1/5 173/1/5
f 175/1/5 172/1/5 171/1/5
f 175/2/5 171/2/5 174/2/5
f 176/1/5 172/1/5 175/1/5
f 177/2/5 174/2/5 173/2/5
f 177/2/5 175/2/5 174/2/5
f 177/2/5 176/2/5 175/2/5
f 178/2/5 176/2/5 177/2/5
f 179/2/5 176/2/5 178/2/5
f 180/2/5 176/2/5 179/2/5
f 181/1/5 178/1/5 177/1/5
f 182/2/5 179/2/5 178/2/5
f 182/1/5 178/1/5 181/1/5
f 183/1/5 180/1/5 179/1/5
f 183/2/5 179/2/5 182/2/5
f 184/1/5 180/1/5 183/1/5
f 185/2/5 182/2/5 181/2/5
f 185/2/5 183/2/5 182/2/5
f 185/2/5 184/2/5 183/2/5
f 186/2/5 184/2/5 185/2/5
f 187/2/5 184/2/5 186/2/5
f 188/2/5 184/2/5 187/2/5
f 189/1/5 186/1/5 185/1/5
f 190/2/5 187/2/5 186/2/5
f 190/1/5 186/1/5 189/1/5
f 191/1/5 188/1/5 187/1/5
f 191/2/5 187/2/5 190/2/5
f 192/1/5 188/1/5 191/1/5
f 193/2/5 190/2/5 189/2/5
f 193/2/5 191/2/5 190/2/5
f 193/2/5 192/2/5 191/2/5
f 194/2/5 192/2/5 193/2/5
f 195/2/5 192/2/5 194/2/5
f 196/2/5 192/2/5 195/2/5
f 197/1/5 194/1/5 193/1/5
f 198/2/5 195/2/5 194/2/5
f 198/1/5 194/1/5 197/1/5
f 199/1/5 196/1/5 195/1/5
f 199/2/5 195/2/5 198/2/5
f 200/1/5 196/1/5 199/1/5
f 201/2/5 198/2/5 197/2/5
f 201/2/5 199/2/5 198/2/5
f 201/2/5 200/2/5 199/2/5
f 202/2/5 200/2/5 201/2/5
f 203/2/5 200/2/5 202/2/5
f 204/2/5 200/2/5 203/2/5
f 205/1/5 202/1/5 201/1/5
f 206/2/5 203/2/5 202/2/5
f 206/1/5 202/1/5 205/1/5
f 207/1/5 204/1/5 203/1/5
f 207/2/5 203/2/5 206/2/5
f 208/1/5 204/1/5 207/1/5
f 209/2/5 206/2/5 205/2/5
f 209/2/5 207/2/5 206/2/5
f 209/2/5 208/2/5 207/2/5
f 210/2/5 208/2/5 209/2/5
f 211/2/5 208/2/5 210/2/5
f 212/2/5 208/2/5 211/2/5
f 213/2/5 208/2/5 212/2/5
f 214/2/5 208/2/5 213/2/5
f 215/2/5 208/2/5 214/2/5
f 216/2/5 208/2/5 215/2/5
f 217/2/5 208/2/5 216/2/5
f 218/2/5 208/2/5 217/2/5
f 219/2/5 208/2/5 218/2/5
f 220/2/5 208/2/5 219/2/5
f 221/2/5 208/2/5 220/2/5
f 222/2/5 208/2/5 221/2/5
f 223/2/5 208/2/5 222/2/5
f 224/2/5 208/2/5 223/2/5
f 225/1/5 210/1/5 209/1/5
f 226/2/5 211/2/5 210/2/5
f 226/1/5 210/1/5 225/1/5
f 227/1/5 212/1/5 211/1/5
f 227/2/5 211/2/5 226/2/5
f 228/2/5 213/2/5 212/2/5
f 228/1/5 212/1/5 227/1/5
f 229/1/5 214/1/5 213/1/5
f 229/2/5 213/2/5 228/2/5
f 230/2/5 215/2/5 214/2/5
f 230/1/5 214/1/5 229/1/5
f 231/1/5 216/1/5 215/1/5
f 231/2/5 215/2/5 230/2/5
f 232/2/5 217/2/5 216/2/5
f 232/1/5 216/1/5 231/1/5
f 233/1/5 218/1/5 217/1/5
f 233/2/5 217/2/5 232/2/5
f 234/2/5 219/2/5 218/2/5
f 234/1/5 218/1/5 233/1/5
f 235/1/5 220/1/5 219/1/5
f 235/2/5 219/2/5 234/2/5
f 236/2/5 221/2/5 220/2/5
f 236/1/5 220/1/5 235/1/5
f 237/1/5 222/1/5 221/1/5
f 237/2/5 221/2/5 236/2/5
f 238/2/5 223/2/5 222/2/5
f 238/1/5 222/1/5 237/1/5
f 239/1/5 224/1/5 223/1/5
f 239/2/5 223/2/5 238/2/5
f 240/1/5 224/1/5 239/1/5
f 241/1/6 242/1/6 257/1/6
f 242/2/6 243/2/6 258/2/6
f 257/1/6 242/1/6 258/1/6
f 243/1/6 244/1/6 259/1/6
f 258/2/6 243/2/6 259/2/6
f 244/2/6 245/2/6 260/2/6
f 259/1/6 244/1/6 260/1/6
f 245/1/6 246/1/6 261/1/6
f 260/2/6 245/2/6 261/2/6
f 246/2/6 247/2/6 262/2/6
f 261/1/6 246/1/6 262/1/6
f 247/1/6 248/1/6 263/1/6
f 262/2/6 247/2/6 263/2/6
f 248/2/6 249/2/6 264/2/6
f 263/1/6 248/1/6 264/1/6
f 249/1/6 250/1/6 265/1/6
f 264/2/6 249/2/6 265/2/6
f 250/2/6 251/2/6 266/2/6
f 265/1/6 250/1/6 266/1/6
f 251/1/6 252/1/6 267/1/6
f 266/2/6 251/2/6 267/2/6
f 252/2/6 253/2/6 268/2/6
f 267/1/6 252/1/6 268/1/6
f 253/1/6 254/1/6 269/1/6
f 268/2/6 253/2/6 269/2/6
f 254/2/6 255/2/6 270/2/6
f 269/1/6 254/1/6 270/1/6
f 255/1/6 256/1/6 271/1/6
f 270/2/6 255/2/6 271/2/6
f 271/1/6 256/1/6 272/1/6
f 269/2/6 270/2/6 273/2/6
f 257/2/6 258/2/6 273/2/6
f 271/2/6 272/2/6 273/2/6
f 270/2/6 271/2/6 273/2/6
f 268/2/6 269/2/6 273/2/6
f 267/2/6 268/2/6 273/2/6
f 266/2/6 267/2/6 273/2/6
f 265/2/6 266/2/6 273/2/6
f 264/2/6 265/2/6 273/2/6
f 263/2/6 264/2/6 273/2/6
f 262/2/6 263/2/6 273/2/6
f 261/2/6 262/2/6 273/2/6
f 260/2/6 261/2/6 273/2/6
f 259/2/6 260/2/6 273/2/6
f 258/2/6 259/2/6 273/2/6
f 273/2/6 272/2/6 274/2/6
f 274/2/6 272/2/6 275/2/6
f 275/2/6 272/2/6 276/2/6
f 273/1/6 274/1/6 277/1/6
f 274/2/6 275/2/6 278/2/6
f 277/1/6 274/1/6 278/1/6
f 275/1/6 276/1/6 279/1/6
f 278/2/6 275/2/6 279/2/6
f 279/1/6 276/1/6 280/1/6
f 277/2/6 278/2/6 281/2/6
f 278/2/6 279/2/6 281/2/6
f 279/2/6 280/2/6 281/2/6
f 281/2/6 280/2/6 282/2/6
f 282/2/6 280/2/6 283/2/6
f 283/2/6 280/2/6 284/2/6
f 281/1/6 282/1/6 285/1/6
f 282/2/6 283/2/6 286/2/6
f 285/1/6 282/1/6 286/1/6
f 283/1/6 284/1/6 287/1/6
f 286/2/6 283/2/6 287/2/6
f 287/1/6 284/1/6 288/1/6
f 285/2/6 286/2/6 289/2/6
f 286/2/6 287/2/6 289/2/6
f 287/2/6 288/2/6 289/2/6
f 289/2/6 288/2/6 290/2/6
f 290/2/6 288/2/6 291/2/6
f 291/2/6 288/2/6 292/2/6
f 289/1/6 290/1/6 293/1/6
f 290/2/6 291/2/6 294/2/6
f 293/1/6 290/1/6 294/1/6
f 291/1/6 292/1/6 295/1/6
f 294/2/6 291/2/6 295/2/6
f 295/1/6 292/1/6 296/1/6
f 293/2/6 294/2/6 297/2/6
f 294/2/6 295/2/6 297/2/6
f 295/2/6 296/2/6 297/2/6
f 297/2/6 296/2/6 298/2/6
f 298/2/6 296/2/6 299/2/6
f 299/2/6 296/2/6 300/2/6
f 297/1/6 298/1/6 301/1/6
f 298/2/6 299/2/6 302/2/6
f 301/1/6 298/1/6 302/1/6
f 299/1/6 300/1/6 303/1/6
f 302/2/6 299/2/6 303/2/6
f 303/1/6 300/1/6 304/1/6
f 301/2/6 302/2/6 305/2/6
f 302/2/6 303/2/6 305/2/6
f 303/2/6 304/2/6 305/2/6
f 305/2/6 304/2/6 306/2/6
f 306/2/6 304/2/6 307/2/6
f 307/2/6 304/2/6 308/2/6
f 305/1/6 306/1/6 309/1/6
f 306/2/6 307/2/6 310/2/6
f 309/1/6 306/1/6 310/1/6
f 307/1/6 308/1/6 311/1/6
f 310/2/6 307/2/6 311/2/6
f 311/1/6 308/1/6 312/1/6
f 309/2/6 310/2/6 313/2/6
f 310/2/6 311/2/6 313/2/6
f 311/2/6 312/2/6 313/2/6
f 313/2/6 312/2/6 314/2/6
f 314/2/6 312/2/6 315/2/6
f 315/2/6 312/2/6 316/2/6
f 313/1/6 314/1/6 317/1/6
f 314/2/6 315/2/6 318/2/6
f 317/1/6 314/1/6 318/1/6
f 315/1/6 316/1/6 319/1/6
f 318/2/6 315/2/6 319/2/6
f 319/1/6 316/1/6 320/1/6
f 317/2/6 318/2/6 321/2/6
f 318/2/6 319/2/6 321/2/6
f 319/2/6 320/2/6 321/2/6
f 321/2/6 320/2/6 322/2/6
f 322/2/6 320/2/6 323/2/6
f 323/2/6 320/2/6 324/2/6
f 324/2/6 320/2/6 325/2/6
f 325/2/6 320/2/6 326/2/6
f 326/2/6 320/2/6 327/2/6
f 327/2/6 320/2/6 328/2/6
f 328/2/6 320/2/6 329/2/6
f 329/2/6 320/2/6 330/2/6
f 330/2/6 320/2/6 331/2/6
f 331/2/6 320/2/6 332/2/6
f 332/2/6 320/2/6 333/2/6
f 333/2/6 320/2/6 334/2/6
f 334/2/6 320/2/6 335/2/6
f 335/2/6 320/2/6 336/2/6
f 321/1/6 322/1/6 337/1/6
f 322/2/6 323/2/6 338/2/6
f 337/1/6 322/1/6 338/1/6
f 323/1/6 324/1/6 339/1/6
f 338/2/6 323/2/6 339/2/6
f 324/2/6 325/2/6 340/2/6
f 339/1/6 324/1/6 340/1/6
f 325/1/6 326/1/6 341/1/6
f 340/2/6 325/2/6 341/2/6
f 326/2/6 327/2/6 342/2/6
f 341/1/6 326/1/6 342/1/6
f 327/1/6 328/1/6 343/1/6
f 342/2/6 327/2/6 343/2/6
f 328/2/6 329/2/6 344/2/6
f 343/1/6 328/1/6 344/1/6
f 329/1/6 330/1/6 345/1/6
f 344/2/6 329/2/6 345/2/6
f 330/2/6 331/2/6 346/2/6
f 345/1/6 330/1/6 346/1/6
f 331/1/6 332/1/6 347/1/6
f 346/2/6 331/2/6 347/2/6
f 332/2/6 333/2/6 348/2/6
f 347/1/6 332/1/6 348/1/6
f 333/1/6 334/1/6 349/1/6
f 348/2/6 333/2/6 349/2/6
f 334/2/6 335/2/6 350/2/6
f 349/1/6 334/1/6 350/1/6
f 335/1/6 336/1/6 351/1/6
f 350/2/6 335/2/6 351/2/6
f 351/1/6 336/1/6 352/1/6
